<svg xmlns="http://www.w3.org/2000/svg" xmlns:xlink="http://www.w3.org/1999/xlink" contentStyleType="text/css" data-diagram-type="SEQUENCE" height="1100px" preserveAspectRatio="none" style="width:966px;height:1100px;background:#FFFFFF;" version="1.1" viewBox="0 0 966 1100" width="966px" zoomAndPan="magnify"><title>&#1047;&#1072;&#1087;&#1091;&#1089;&#1082; &#1080; &#1087;&#1088;&#1086;&#1076;&#1086;&#1083;&#1078;&#1077;&#1085;&#1080;&#1077; &#1092;&#1086;&#1085;&#1086;&#1074;&#1086;&#1081; &#1088;&#1072;&#1073;&#1086;&#1090;&#1099;</title><defs/><g><text fill="#000000" font-family="sans-serif" font-size="14" font-weight="bold" lengthAdjust="spacing" textLength="298.5664" x="335.1008" y="28.5352">&#1047;&#1072;&#1087;&#1091;&#1089;&#1082; &#1080; &#1087;&#1088;&#1086;&#1076;&#1086;&#1083;&#1078;&#1077;&#1085;&#1080;&#1077; &#1092;&#1086;&#1085;&#1086;&#1074;&#1086;&#1081; &#1088;&#1072;&#1073;&#1086;&#1090;&#1099;</text><rect fill="none" height="149.5078" style="stroke:#000000;stroke-width:1.5;" width="399.833" x="137.3584" y="209.9082"/><rect fill="none" height="593.7207" style="stroke:#000000;stroke-width:1.5;" width="645.7896" x="313.9785" y="482.6582"/><rect fill="none" height="178.1738" style="stroke:#000000;stroke-width:1.5;" width="625.7896" x="323.9785" y="551.2344"/><rect fill="none" height="325.9707" style="stroke:#000000;stroke-width:1.5;" width="436.8682" x="323.9785" y="743.4082"/><g><title>Trigger</title><rect fill="#000000" fill-opacity="0.00000" height="974.4023" width="8" x="28.8076" y="118.9766"/><line style="stroke:#181818;stroke-width:0.5;stroke-dasharray:5,5;" x1="32" x2="32" y1="118.9766" y2="1093.3789"/></g><g><title>Core lifecycle</title><rect fill="#000000" fill-opacity="0.00000" height="974.4023" width="8" x="191.7524" y="118.9766"/><line style="stroke:#181818;stroke-width:0.5;stroke-dasharray:5,5;" x1="195.3584" x2="195.3584" y1="118.9766" y2="1093.3789"/></g><g><title>SyncState</title><rect fill="#000000" fill-opacity="0.00000" height="974.4023" width="8" x="365.1074" y="118.9766"/><line style="stroke:#181818;stroke-width:0.5;stroke-dasharray:5,5;" x1="368.9785" x2="368.9785" y1="118.9766" y2="1093.3789"/></g><g><title>Scheduler .</title><rect fill="#000000" fill-opacity="0.00000" height="974.4023" width="8" x="466.7139" y="118.9766"/><line style="stroke:#181818;stroke-width:0.5;stroke-dasharray:5,5;" x1="470.2363" x2="470.2363" y1="118.9766" y2="1093.3789"/></g><g><title>Execution worker</title><rect fill="#000000" fill-opacity="0.00000" height="974.4023" width="8" x="685.0166" y="118.9766"/><line style="stroke:#181818;stroke-width:0.5;stroke-dasharray:5,5;" x1="688.1865" x2="688.1865" y1="118.9766" y2="1093.3789"/></g><g><title>Remote .</title><rect fill="#000000" fill-opacity="0.00000" height="974.4023" width="8" x="875.3555" y="118.9766"/><line style="stroke:#181818;stroke-width:0.5;stroke-dasharray:5,5;" x1="878.9429" x2="878.9429" y1="118.9766" y2="1093.3789"/></g><g class="participant participant-head" data-participant="Trigger"><text fill="#000000" font-family="sans-serif" font-size="14" lengthAdjust="spacing" textLength="49.6152" x="5" y="116.0234">Trigger</text><ellipse cx="32.8076" cy="50.9883" fill="#E2E2F0" rx="8" ry="8" style="stroke:#181818;stroke-width:0.5;"/><path d="M32.8076,58.9883 L32.8076,85.9883 M19.8076,66.9883 L45.8076,66.9883 M32.8076,85.9883 L19.8076,100.9883 M32.8076,85.9883 L45.8076,100.9883" fill="none" style="stroke:#181818;stroke-width:0.5;"/></g><g class="participant participant-head" data-participant="Core"><text fill="#000000" font-family="sans-serif" font-size="14" lengthAdjust="spacing" textLength="90.7881" x="147.3584" y="99.5352">Core lifecycle</text><text fill="#000000" font-family="sans-serif" font-size="14" lengthAdjust="spacing" textLength="57.7705" x="163.8672" y="116.0234">/ trigger</text><ellipse cx="195.7524" cy="70" fill="#E2E2F0" rx="12" ry="12" style="stroke:#181818;stroke-width:0.5;"/><polygon fill="#181818" points="191.7524,58,197.7524,53,195.7524,58,197.7524,63,191.7524,58" style="stroke:#181818;stroke-width:1;"/></g><g class="participant participant-head" data-participant="SyncState"><text fill="#000000" font-family="sans-serif" font-size="14" lengthAdjust="spacing" textLength="64.2578" x="333.9785" y="116.0234">SyncState</text><path d="M351.1074,66.4883 C351.1074,56.4883 369.1074,56.4883 369.1074,56.4883 C369.1074,56.4883 387.1074,56.4883 387.1074,66.4883 L387.1074,92.4883 C387.1074,102.4883 369.1074,102.4883 369.1074,102.4883 C369.1074,102.4883 351.1074,102.4883 351.1074,92.4883 L351.1074,66.4883" fill="#E2E2F0" style="stroke:#181818;stroke-width:0.5;"/><path d="M351.1074,66.4883 C351.1074,76.4883 369.1074,76.4883 369.1074,76.4883 C369.1074,76.4883 387.1074,76.4883 387.1074,66.4883" fill="none" style="stroke:#181818;stroke-width:0.5;"/></g><g class="participant participant-head" data-participant="Work"><path d="M419.2363,76 L522.1914,76 C527.1914,76 527.1914,97.4883 527.1914,97.4883 C527.1914,97.4883 527.1914,118.9766 522.1914,118.9766 L419.2363,118.9766 C414.2363,118.9766 414.2363,97.4883 414.2363,97.4883 C414.2363,97.4883 414.2363,76 419.2363,76" fill="#E2E2F0" style="stroke:#181818;stroke-width:0.5;"/><path d="M522.1914,76 C517.1914,76 517.1914,97.4883 517.1914,97.4883 C517.1914,118.9766 522.1914,118.9766 522.1914,118.9766" fill="none" style="stroke:#181818;stroke-width:0.5;"/><text fill="#000000" font-family="sans-serif" font-size="14" lengthAdjust="spacing" textLength="78.0459" x="426.6909" y="94.5352">Scheduler /</text><text fill="#000000" font-family="sans-serif" font-size="14" lengthAdjust="spacing" textLength="92.9551" x="419.2363" y="111.0234">WorkManager</text></g><g class="participant participant-head" data-participant="Worker"><text fill="#000000" font-family="sans-serif" font-size="14" lengthAdjust="spacing" textLength="117.6602" x="627.1865" y="99.5352">Execution worker</text><text fill="#000000" font-family="sans-serif" font-size="14" lengthAdjust="spacing" textLength="41.9727" x="665.0303" y="116.0234">/ slice</text><ellipse cx="689.0166" cy="70" fill="#E2E2F0" rx="12" ry="12" style="stroke:#181818;stroke-width:0.5;"/><polygon fill="#181818" points="685.0166,58,691.0166,53,689.0166,58,691.0166,63,685.0166,58" style="stroke:#181818;stroke-width:1;"/></g><g class="participant participant-head" data-participant="Adapters"><rect fill="#E2E2F0" height="46.9766" rx="2.5" ry="2.5" style="stroke:#181818;stroke-width:0.5;" width="120.8252" x="818.9429" y="71"/><text fill="#000000" font-family="sans-serif" font-size="14" lengthAdjust="spacing" textLength="63.1299" x="847.7905" y="91.5352">Remote /</text><text fill="#000000" font-family="sans-serif" font-size="14" lengthAdjust="spacing" textLength="106.8252" x="825.9429" y="108.0234">owned calendar</text></g><g class="message" data-participant-1="Trigger" data-participant-2="Core"><polygon fill="#181818" points="183.7524,161.5977,193.7524,165.5977,183.7524,169.5977,187.7524,165.5977" style="stroke:#181818;stroke-width:1;"/><line style="stroke:#181818;stroke-width:1;" x1="32.8076" x2="189.7524" y1="165.5977" y2="165.5977"/><text fill="#000000" font-family="sans-serif" font-size="13" font-weight="bold" lengthAdjust="spacing" textLength="8.5757" x="44.8076" y="153.2002">1</text><text fill="#000000" font-family="sans-serif" font-size="13" lengthAdjust="spacing" textLength="95.6021" x="72.7668" y="145.5449">Save / Enable /</text><text fill="#000000" font-family="sans-serif" font-size="13" lengthAdjust="spacing" textLength="126.3691" x="57.3833" y="160.8555">Sync Now / periodic</text></g><g class="message" data-participant-1="Core" data-participant-2="SyncState"><polygon fill="#181818" points="357.1074,190.9082,367.1074,194.9082,357.1074,198.9082,361.1074,194.9082" style="stroke:#181818;stroke-width:1;"/><line style="stroke:#181818;stroke-width:1;" x1="195.7524" x2="363.1074" y1="194.9082" y2="194.9082"/><text fill="#000000" font-family="sans-serif" font-size="13" font-weight="bold" lengthAdjust="spacing" textLength="8.5757" x="207.7524" y="190.166">2</text><text fill="#000000" font-family="sans-serif" font-size="13" lengthAdjust="spacing" textLength="136.7793" x="220.3281" y="190.166">transition + eligibility</text></g><path d="M137.3584,209.9082 L199.4971,209.9082 L199.4971,217.2188 L189.4971,227.2188 L137.3584,227.2188 L137.3584,209.9082" fill="#EEEEEE" style="stroke:#000000;stroke-width:1.5;"/><rect fill="none" height="149.5078" style="stroke:#000000;stroke-width:1.5;" width="399.833" x="137.3584" y="209.9082"/><text fill="#000000" font-family="sans-serif" font-size="13" font-weight="bold" lengthAdjust="spacing" textLength="17.1387" x="152.3584" y="223.4766">alt</text><text fill="#000000" font-family="sans-serif" font-size="11" font-weight="bold" lengthAdjust="spacing" textLength="106.8472" x="214.4971" y="222.543">[&#1079;&#1072;&#1087;&#1091;&#1089;&#1082; &#1088;&#1072;&#1079;&#1088;&#1077;&#1096;&#1105;&#1085;]</text><g class="message" data-participant-1="SyncState" data-participant-2="Core"><polygon fill="#181818" points="206.7524,244.5293,196.7524,248.5293,206.7524,252.5293,202.7524,248.5293" style="stroke:#181818;stroke-width:1;"/><line style="stroke:#181818;stroke-width:1;stroke-dasharray:2,2;" x1="200.7524" x2="368.1074" y1="248.5293" y2="248.5293"/><text fill="#000000" font-family="sans-serif" font-size="13" font-weight="bold" lengthAdjust="spacing" textLength="8.5757" x="223.8945" y="243.7871">3</text><text fill="#000000" font-family="sans-serif" font-size="13" lengthAdjust="spacing" textLength="104.4951" x="236.4702" y="243.7871">QUEUED + fence</text></g><g class="message" data-participant-1="Core" data-participant-2="Work"><polygon fill="#181818" points="458.7139,273.8398,468.7139,277.8398,458.7139,281.8398,462.7139,277.8398" style="stroke:#181818;stroke-width:1;"/><line style="stroke:#181818;stroke-width:1;" x1="195.7524" x2="464.7139" y1="277.8398" y2="277.8398"/><text fill="#000000" font-family="sans-serif" font-size="13" font-weight="bold" lengthAdjust="spacing" textLength="8.5757" x="272.2666" y="273.0977">4</text><text fill="#000000" font-family="sans-serif" font-size="13" lengthAdjust="spacing" textLength="109.3574" x="284.8423" y="273.0977">unique execution</text></g><g class="message" data-participant-1="Work" data-participant-2="Core"><polygon fill="#181818" points="206.7524,303.1504,196.7524,307.1504,206.7524,311.1504,202.7524,307.1504" style="stroke:#181818;stroke-width:1;"/><line style="stroke:#181818;stroke-width:1;stroke-dasharray:2,2;" x1="200.7524" x2="469.7139" y1="307.1504" y2="307.1504"/><text fill="#000000" font-family="sans-serif" font-size="13" font-weight="bold" lengthAdjust="spacing" textLength="8.5757" x="273.8662" y="302.4082">5</text><text fill="#000000" font-family="sans-serif" font-size="13" lengthAdjust="spacing" textLength="106.1582" x="286.4419" y="302.4082">durable enqueue</text></g><line style="stroke:#000000;stroke-width:1;stroke-dasharray:2,2;" x1="137.3584" x2="537.1914" y1="316.1504" y2="316.1504"/><text fill="#000000" font-family="sans-serif" font-size="11" font-weight="bold" lengthAdjust="spacing" textLength="202.8018" x="142.3584" y="326.7852">[run &#1072;&#1082;&#1090;&#1080;&#1074;&#1077;&#1085; / trigger &#1085;&#1077;&#1076;&#1086;&#1087;&#1091;&#1089;&#1090;&#1080;&#1084;]</text><g class="message" data-participant-1="SyncState" data-participant-2="Core"><polygon fill="#181818" points="206.7524,347.416,196.7524,351.416,206.7524,355.416,202.7524,351.416" style="stroke:#181818;stroke-width:1;"/><line style="stroke:#181818;stroke-width:1;stroke-dasharray:2,2;" x1="200.7524" x2="368.1074" y1="351.416" y2="351.416"/><text fill="#000000" font-family="sans-serif" font-size="13" font-weight="bold" lengthAdjust="spacing" textLength="8.5757" x="212.3608" y="346.6738">6</text><text fill="#000000" font-family="sans-serif" font-size="13" lengthAdjust="spacing" textLength="127.5625" x="224.9365" y="346.6738">Coalesced / Ignored</text></g><path d="M145,371.416 L145,411.416 L519,411.416 L519,381.416 L509,371.416 L145,371.416" fill="#FEFFDD" style="stroke:#181818;stroke-width:0.5;"/><path d="M509,371.416 L509,381.416 L519,381.416 L509,371.416" fill="#FEFFDD" style="stroke:#181818;stroke-width:0.5;"/><text fill="#000000" font-family="sans-serif" font-size="13" lengthAdjust="spacing" textLength="321.1978" x="166.8542" y="388.9844">&#1053;&#1086;&#1074;&#1099;&#1081; &#1087;&#1088;&#1086;&#1092;&#1080;&#1083;&#1100; / Enable: &#1089;&#1085;&#1072;&#1095;&#1072;&#1083;&#1072; owned cleanup,</text><text fill="#000000" font-family="sans-serif" font-size="13" lengthAdjust="spacing" textLength="322.1245" x="166.8542" y="404.2949">&#1079;&#1072;&#1090;&#1077;&#1084; immediate &#1080; &#1086;&#1076;&#1085;&#1072; periodic work (15 &#1084;&#1080;&#1085;&#1091;&#1090;).</text><g class="message" data-participant-1="Work" data-participant-2="Worker"><polygon fill="#181818" points="677.0166,434.3477,687.0166,438.3477,677.0166,442.3477,681.0166,438.3477" style="stroke:#181818;stroke-width:1;"/><line style="stroke:#181818;stroke-width:1;" x1="470.7139" x2="683.0166" y1="438.3477" y2="438.3477"/><text fill="#000000" font-family="sans-serif" font-size="13" font-weight="bold" lengthAdjust="spacing" textLength="8.5757" x="528.2583" y="433.6055">7</text><text fill="#000000" font-family="sans-serif" font-size="13" lengthAdjust="spacing" textLength="90.6382" x="540.834" y="433.6055">doWork(fence)</text></g><g class="message" data-participant-1="Worker" data-participant-2="SyncState"><polygon fill="#181818" points="380.1074,463.6582,370.1074,467.6582,380.1074,471.6582,376.1074,467.6582" style="stroke:#181818;stroke-width:1;"/><line style="stroke:#181818;stroke-width:1;" x1="374.1074" x2="688.0166" y1="467.6582" y2="467.6582"/><text fill="#000000" font-family="sans-serif" font-size="13" font-weight="bold" lengthAdjust="spacing" textLength="8.5757" x="469.9077" y="462.916">8</text><text fill="#000000" font-family="sans-serif" font-size="13" lengthAdjust="spacing" textLength="105.7329" x="482.4834" y="462.916">&#1087;&#1088;&#1086;&#1074;&#1077;&#1088;&#1080;&#1090;&#1100; fence</text></g><path d="M313.9785,482.6582 L376.1172,482.6582 L376.1172,489.9688 L366.1172,499.9688 L313.9785,499.9688 L313.9785,482.6582" fill="#EEEEEE" style="stroke:#000000;stroke-width:1.5;"/><rect fill="none" height="593.7207" style="stroke:#000000;stroke-width:1.5;" width="645.7896" x="313.9785" y="482.6582"/><text fill="#000000" font-family="sans-serif" font-size="13" font-weight="bold" lengthAdjust="spacing" textLength="17.1387" x="328.9785" y="496.2266">alt</text><text fill="#000000" font-family="sans-serif" font-size="11" font-weight="bold" lengthAdjust="spacing" textLength="87.1406" x="391.1172" y="495.293">[fence &#1091;&#1089;&#1090;&#1072;&#1088;&#1077;&#1083;]</text><g class="message" data-participant-1="Worker" data-participant-2="Work"><polygon fill="#181818" points="481.7139,517.2793,471.7139,521.2793,481.7139,525.2793,477.7139,521.2793" style="stroke:#181818;stroke-width:1;"/><line style="stroke:#181818;stroke-width:1;stroke-dasharray:2,2;" x1="475.7139" x2="688.0166" y1="521.2793" y2="521.2793"/><text fill="#000000" font-family="sans-serif" font-size="13" font-weight="bold" lengthAdjust="spacing" textLength="8.5757" x="515.0393" y="516.5371">9</text><text fill="#000000" font-family="sans-serif" font-size="13" lengthAdjust="spacing" textLength="117.0762" x="527.615" y="516.5371">success (Obsolete)</text></g><line style="stroke:#000000;stroke-width:1;stroke-dasharray:2,2;" x1="313.9785" x2="959.7681" y1="530.2793" y2="530.2793"/><text fill="#000000" font-family="sans-serif" font-size="11" font-weight="bold" lengthAdjust="spacing" textLength="94.3647" x="318.9785" y="540.9141">[fence &#1072;&#1082;&#1090;&#1091;&#1072;&#1083;&#1077;&#1085;]</text><path d="M323.9785,551.2344 L398.4253,551.2344 L398.4253,558.5449 L388.4253,568.5449 L323.9785,568.5449 L323.9785,551.2344" fill="#EEEEEE" style="stroke:#000000;stroke-width:1.5;"/><rect fill="none" height="178.1738" style="stroke:#000000;stroke-width:1.5;" width="625.7896" x="323.9785" y="551.2344"/><text fill="#000000" font-family="sans-serif" font-size="13" font-weight="bold" lengthAdjust="spacing" textLength="29.4468" x="338.9785" y="564.8027">loop</text><text fill="#000000" font-family="sans-serif" font-size="11" font-weight="bold" lengthAdjust="spacing" textLength="298.8369" x="413.4253" y="563.8691">[pages, &#1087;&#1086;&#1082;&#1072; &#1077;&#1089;&#1090;&#1100; &#1080;&#1079;&#1084;&#1077;&#1085;&#1077;&#1085;&#1080;&#1103; &#1080; &#1085;&#1077; &#1076;&#1086;&#1089;&#1090;&#1080;&#1075;&#1085;&#1091;&#1090; &#1083;&#1080;&#1084;&#1080;&#1090;]</text><g class="message" data-participant-1="Worker" data-participant-2="Adapters"><polygon fill="#181818" points="867.3555,585.8555,877.3555,589.8555,867.3555,593.8555,871.3555,589.8555" style="stroke:#181818;stroke-width:1;"/><line style="stroke:#181818;stroke-width:1;" x1="689.0166" x2="873.3555" y1="589.8555" y2="589.8555"/><text fill="#000000" font-family="sans-serif" font-size="13" font-weight="bold" lengthAdjust="spacing" textLength="17.1514" x="701.7644" y="585.1133">10</text><text fill="#000000" font-family="sans-serif" font-size="13" lengthAdjust="spacing" textLength="143.6919" x="722.9158" y="585.1133">fetchPage + applyPage</text></g><g class="message" data-participant-1="Adapters" data-participant-2="Worker"><polygon fill="#181818" points="700.0166,615.166,690.0166,619.166,700.0166,623.166,696.0166,619.166" style="stroke:#181818;stroke-width:1;"/><line style="stroke:#181818;stroke-width:1;stroke-dasharray:2,2;" x1="694.0166" x2="878.3555" y1="619.166" y2="619.166"/><text fill="#000000" font-family="sans-serif" font-size="13" font-weight="bold" lengthAdjust="spacing" textLength="17.1514" x="746.1409" y="614.4238">11</text><text fill="#000000" font-family="sans-serif" font-size="13" lengthAdjust="spacing" textLength="54.939" x="767.2922" y="614.4238">outcome</text></g><g class="message" data-participant-1="Worker" data-participant-2="SyncState"><polygon fill="#181818" points="380.1074,659.7871,370.1074,663.7871,380.1074,667.7871,376.1074,663.7871" style="stroke:#181818;stroke-width:1;"/><line style="stroke:#181818;stroke-width:1;" x1="374.1074" x2="688.0166" y1="663.7871" y2="663.7871"/><text fill="#000000" font-family="sans-serif" font-size="13" font-weight="bold" lengthAdjust="spacing" textLength="17.1514" x="451.3408" y="651.3896">12</text><text fill="#000000" font-family="sans-serif" font-size="13" lengthAdjust="spacing" textLength="95.4878" x="491.8938" y="643.7344">commit &#1090;&#1086;&#1083;&#1100;&#1082;&#1086;</text><text fill="#000000" font-family="sans-serif" font-size="13" lengthAdjust="spacing" textLength="134.291" x="472.4922" y="659.0449">&#1087;&#1086;&#1089;&#1083;&#1077; &#1087;&#1086;&#1083;&#1085;&#1086;&#1075;&#1086; apply</text></g><g class="message" data-participant-1="Worker" data-participant-2="Worker"><line style="stroke:#181818;stroke-width:1;" x1="689.0166" x2="731.0166" y1="708.4082" y2="708.4082"/><line style="stroke:#181818;stroke-width:1;" x1="731.0166" x2="731.0166" y1="708.4082" y2="721.4082"/><line style="stroke:#181818;stroke-width:1;" x1="690.0166" x2="731.0166" y1="721.4082" y2="721.4082"/><polygon fill="#181818" points="700.0166,717.4082,690.0166,721.4082,700.0166,725.4082,696.0166,721.4082" style="stroke:#181818;stroke-width:1;"/><text fill="#000000" font-family="sans-serif" font-size="13" font-weight="bold" lengthAdjust="spacing" textLength="17.1514" x="696.0166" y="696.0107">13</text><text fill="#000000" font-family="sans-serif" font-size="13" lengthAdjust="spacing" textLength="144.9487" x="722.2874" y="688.3555">&#1087;&#1086;&#1089;&#1083;&#1077; &#1091;&#1089;&#1087;&#1077;&#1096;&#1085;&#1086;&#1081; page:</text><text fill="#000000" font-family="sans-serif" font-size="13" lengthAdjust="spacing" textLength="155.1875" x="717.168" y="703.666">10 &#1089;&#1090;&#1088;&#1072;&#1085;&#1080;&#1094; / 4 &#1084;&#1080;&#1085;&#1091;&#1090;&#1099;?</text></g><path d="M323.9785,743.4082 L386.1172,743.4082 L386.1172,750.7188 L376.1172,760.7188 L323.9785,760.7188 L323.9785,743.4082" fill="#EEEEEE" style="stroke:#000000;stroke-width:1.5;"/><rect fill="none" height="325.9707" style="stroke:#000000;stroke-width:1.5;" width="436.8682" x="323.9785" y="743.4082"/><text fill="#000000" font-family="sans-serif" font-size="13" font-weight="bold" lengthAdjust="spacing" textLength="17.1387" x="338.9785" y="756.9766">alt</text><text fill="#000000" font-family="sans-serif" font-size="11" font-weight="bold" lengthAdjust="spacing" textLength="172.6484" x="401.1172" y="756.043">[terminal page, &#1085;&#1077;&#1090; follow-up]</text><g class="message" data-participant-1="Worker" data-participant-2="SyncState"><polygon fill="#181818" points="380.1074,778.0293,370.1074,782.0293,380.1074,786.0293,376.1074,782.0293" style="stroke:#181818;stroke-width:1;"/><line style="stroke:#181818;stroke-width:1;" x1="374.1074" x2="688.0166" y1="782.0293" y2="782.0293"/><text fill="#000000" font-family="sans-serif" font-size="13" font-weight="bold" lengthAdjust="spacing" textLength="17.1514" x="457.9519" y="777.2871">14</text><text fill="#000000" font-family="sans-serif" font-size="13" lengthAdjust="spacing" textLength="121.0688" x="479.1033" y="777.2871">IDLE + last success</text></g><g class="message" data-participant-1="Worker" data-participant-2="Work"><polygon fill="#181818" points="481.7139,807.3398,471.7139,811.3398,481.7139,815.3398,477.7139,811.3398" style="stroke:#181818;stroke-width:1;"/><line style="stroke:#181818;stroke-width:1;stroke-dasharray:2,2;" x1="475.7139" x2="688.0166" y1="811.3398" y2="811.3398"/><text fill="#000000" font-family="sans-serif" font-size="13" font-weight="bold" lengthAdjust="spacing" textLength="17.1514" x="545.0352" y="806.5977">15</text><text fill="#000000" font-family="sans-serif" font-size="13" lengthAdjust="spacing" textLength="48.5088" x="566.1865" y="806.5977">success</text></g><line style="stroke:#000000;stroke-width:1;stroke-dasharray:2,2;" x1="323.9785" x2="760.8467" y1="820.3398" y2="820.3398"/><text fill="#000000" font-family="sans-serif" font-size="11" font-weight="bold" lengthAdjust="spacing" textLength="251.0825" x="328.9785" y="830.9746">[continuation / recoverable reset / capacity]</text><g class="message" data-participant-1="Worker" data-participant-2="SyncState"><polygon fill="#181818" points="380.1074,851.6055,370.1074,855.6055,380.1074,859.6055,376.1074,855.6055" style="stroke:#181818;stroke-width:1;"/><line style="stroke:#181818;stroke-width:1;" x1="374.1074" x2="688.0166" y1="855.6055" y2="855.6055"/><text fill="#000000" font-family="sans-serif" font-size="13" font-weight="bold" lengthAdjust="spacing" textLength="17.1514" x="492.5149" y="850.8633">16</text><text fill="#000000" font-family="sans-serif" font-size="13" lengthAdjust="spacing" textLength="51.9429" x="513.6663" y="850.8633">QUEUED</text></g><g class="message" data-participant-1="Worker" data-participant-2="Work"><polygon fill="#181818" points="481.7139,880.916,471.7139,884.916,481.7139,888.916,477.7139,884.916" style="stroke:#181818;stroke-width:1;"/><line style="stroke:#181818;stroke-width:1;" x1="475.7139" x2="688.0166" y1="884.916" y2="884.916"/><text fill="#000000" font-family="sans-serif" font-size="13" font-weight="bold" lengthAdjust="spacing" textLength="17.1514" x="485.6401" y="880.1738">17</text><text fill="#000000" font-family="sans-serif" font-size="13" lengthAdjust="spacing" textLength="167.2988" x="506.7915" y="880.1738">continuation, &#1090;&#1086;&#1090; &#1078;&#1077; fence</text></g><g class="message" data-participant-1="Worker" data-participant-2="Work"><polygon fill="#181818" points="481.7139,910.2266,471.7139,914.2266,481.7139,918.2266,477.7139,914.2266" style="stroke:#181818;stroke-width:1;"/><line style="stroke:#181818;stroke-width:1;stroke-dasharray:2,2;" x1="475.7139" x2="688.0166" y1="914.2266" y2="914.2266"/><text fill="#000000" font-family="sans-serif" font-size="13" font-weight="bold" lengthAdjust="spacing" textLength="17.1514" x="545.0352" y="909.4844">18</text><text fill="#000000" font-family="sans-serif" font-size="13" lengthAdjust="spacing" textLength="48.5088" x="566.1865" y="909.4844">success</text></g><line style="stroke:#000000;stroke-width:1;stroke-dasharray:2,2;" x1="323.9785" x2="760.8467" y1="923.2266" y2="923.2266"/><text fill="#000000" font-family="sans-serif" font-size="11" font-weight="bold" lengthAdjust="spacing" textLength="181.0488" x="328.9785" y="933.8613">[transient, budget &#1085;&#1077; &#1080;&#1089;&#1095;&#1077;&#1088;&#1087;&#1072;&#1085;]</text><g class="message" data-participant-1="Worker" data-participant-2="SyncState"><polygon fill="#181818" points="380.1074,954.4922,370.1074,958.4922,380.1074,962.4922,376.1074,958.4922" style="stroke:#181818;stroke-width:1;"/><line style="stroke:#181818;stroke-width:1;" x1="374.1074" x2="688.0166" y1="958.4922" y2="958.4922"/><text fill="#000000" font-family="sans-serif" font-size="13" font-weight="bold" lengthAdjust="spacing" textLength="17.1514" x="455.2573" y="953.75">19</text><text fill="#000000" font-family="sans-serif" font-size="13" lengthAdjust="spacing" textLength="126.458" x="476.4087" y="953.75">QUEUED + attempts</text></g><g class="message" data-participant-1="Worker" data-participant-2="Work"><polygon fill="#181818" points="481.7139,983.8027,471.7139,987.8027,481.7139,991.8027,477.7139,987.8027" style="stroke:#181818;stroke-width:1;"/><line style="stroke:#181818;stroke-width:1;stroke-dasharray:2,2;" x1="475.7139" x2="688.0166" y1="987.8027" y2="987.8027"/><text fill="#000000" font-family="sans-serif" font-size="13" font-weight="bold" lengthAdjust="spacing" textLength="17.1514" x="482.7139" y="983.0605">20</text><text fill="#000000" font-family="sans-serif" font-size="13" lengthAdjust="spacing" textLength="173.1514" x="503.8652" y="983.0605">retry, backoff &#1086;&#1090; 30 &#1089;&#1077;&#1082;&#1091;&#1085;&#1076;</text></g><line style="stroke:#000000;stroke-width:1;stroke-dasharray:2,2;" x1="323.9785" x2="760.8467" y1="996.8027" y2="996.8027"/><text fill="#000000" font-family="sans-serif" font-size="11" font-weight="bold" lengthAdjust="spacing" textLength="205.8848" x="328.9785" y="1007.4375">[persistent / &#1087;&#1103;&#1090;&#1072;&#1103; transient failure]</text><g class="message" data-participant-1="Worker" data-participant-2="SyncState"><polygon fill="#181818" points="380.1074,1028.0684,370.1074,1032.0684,380.1074,1036.0684,376.1074,1032.0684" style="stroke:#181818;stroke-width:1;"/><line style="stroke:#181818;stroke-width:1;" x1="374.1074" x2="688.0166" y1="1032.0684" y2="1032.0684"/><text fill="#000000" font-family="sans-serif" font-size="13" font-weight="bold" lengthAdjust="spacing" textLength="17.1514" x="438.4456" y="1027.3262">21</text><text fill="#000000" font-family="sans-serif" font-size="13" lengthAdjust="spacing" textLength="160.0815" x="459.5969" y="1027.3262">BLOCKED + safe problem</text></g><g class="message" data-participant-1="Worker" data-participant-2="Work"><polygon fill="#181818" points="481.7139,1057.3789,471.7139,1061.3789,481.7139,1065.3789,477.7139,1061.3789" style="stroke:#181818;stroke-width:1;"/><line style="stroke:#181818;stroke-width:1;stroke-dasharray:2,2;" x1="475.7139" x2="688.0166" y1="1061.3789" y2="1061.3789"/><text fill="#000000" font-family="sans-serif" font-size="13" font-weight="bold" lengthAdjust="spacing" textLength="17.1514" x="545.0352" y="1056.6367">22</text><text fill="#000000" font-family="sans-serif" font-size="13" lengthAdjust="spacing" textLength="48.5088" x="566.1865" y="1056.6367">success</text></g></g></svg>